{
  "accessors": [
    {
      "bufferView": 2,
      "componentType": 5126,
      "count": 7511,
      "max": [
        0.6032743453979492,
        0.6593009829521179,
        1.4067434072494507
      ],
      "min": [
        -0.6806326508522034,
        -0.4779387414455414,
        -0.0017385333776474
      ],
      "type": "VEC3"
    },
    {
      "bufferView": 2,
      "byteOffset": 90132,
      "componentType": 5126,
      "count": 7511,
      "max": [
        1.0,
        1.0,
        1.0
      ],
      "min": [
        -1.0,
        -1.0,
        -1.0
      ],
      "type": "VEC3"
    },
    {
      "bufferView": 3,
      "componentType": 5126,
      "count": 7511,
      "max": [
        0.9999985098838806,
        0.999979555606842,
        1.0,
        1.0
      ],
      "min": [
        -0.9999968409538269,
        -0.9999672770500183,
        -1.0,
        -1.0
      ],
      "type": "VEC4"
    },
    {
      "bufferView": 1,
      "componentType": 5126,
      "count": 7511,
      "max": [
        0.9979951977729797,
        0.9817132949829102
      ],
      "min": [
        0.002004782436415553,
        0.002004782436415553
      ],
      "type": "VEC2"
    },
    {
      "bufferView": 1,
      "byteOffset": 60088,
      "componentType": 5126,
      "count": 7511,
      "max": [
        0.9979951977729797,
        0.9817132949829102
      ],
      "min": [
        0.002004782436415553,
        0.002004782436415553
      ],
      "type": "VEC2"
    },
    {
      "bufferView": 1,
      "byteOffset": 120176,
      "componentType": 5126,
      "count": 7511,
      "max": [
        0.9979951977729797,
        0.9817132949829102
      ],
      "min": [
        0.002004782436415553,
        0.002004782436415553
      ],
      "type": "VEC2"
    },
    {
      "bufferView": 0,
      "componentType": 5125,
      "count": 31668,
      "type": "SCALAR"
    }
  ],
  "asset": {
    "extras": {
      "author": "Janis Zeps (https://sketchfab.com/zeps9001)",
      "license": "CC-BY-4.0 (http://creativecommons.org/licenses/by/4.0/)",
      "source": "https://sketchfab.com/3d-models/jinxs-grenade-from-arcane-4edfdeff53314ac18c6797ebf7e04744",
      "title": "Jinx's Grenade from Arcane"
    },
    "generator": "Sketchfab-12.12.0",
    "version": "2.0"
  },
  "bufferViews": [
    {
      "buffer": 0,
      "byteLength": 126672,
      "name": "floatBufferViews",
      "target": 34963
    },
    {
      "buffer": 0,
      "byteLength": 180264,
      "byteOffset": 126672,
      "byteStride": 8,
      "name": "floatBufferViews",
      "target": 34962
    },
    {
      "buffer": 0,
      "byteLength": 180264,
      "byteOffset": 306936,
      "byteStride": 12,
      "name": "floatBufferViews",
      "target": 34962
    },
    {
      "buffer": 0,
      "byteLength": 120176,
      "byteOffset": 487200,
      "byteStride": 16,
      "name": "floatBufferViews",
      "target": 34962
    }
  ],
  "buffers": [
    {
      "byteLength": 607376,
      "uri": "assets/jinxs_grenade_from_arcane/scene.bin"
    }
  ],
  "images": [
    {
      "uri": "assets/jinxs_grenade_from_arcane/textures/grenade_baseColor.png"
    },
    {
      "uri": "assets/jinxs_grenade_from_arcane/textures/grenade_metallicRoughness.png"
    },
    {
      "uri": "assets/jinxs_grenade_from_arcane/textures/grenade_emissive.png"
    },
    {
      "uri": "assets/jinxs_grenade_from_arcane/textures/grenade_normal.png"
    }
  ],
  "materials": [
    {
      "doubleSided": true,
      "emissiveFactor": [
        0.9291264615216243,
        0.9291264615216243,
        0.9291264615216243
      ],
      "emissiveTexture": {
        "index": 2
      },
      "name": "grenade",
      "normalTexture": {
        "index": 3
      },
      "occlusionTexture": {
        "index": 1
      },
      "pbrMetallicRoughness": {
        "baseColorTexture": {
          "index": 0
        },
        "metallicFactor": 0.6887696161586683,
        "metallicRoughnessTexture": {
          "index": 1
        }
      }
    }
  ],
  "meshes": [
    {
      "name": "grenade_grenade_0",
      "primitives": [
        {
          "attributes": {
            "NORMAL": 1,
            "POSITION": 0,
            "TANGENT": 2,
            "TEXCOORD_0": 3,
            "TEXCOORD_1": 4,
            "TEXCOORD_2": 5
          },
          "indices": 6,
          "material": 0,
          "mode": 4
        }
      ]
    }
  ],
  "nodes": [
    {
      "children": [
        1
      ],
      "matrix": [
        1.0,
        0.0,
        0.0,
        0.0,
        0.0,
        2.220446049250313e-16,
        -1.0,
        0.0,
        0.0,
        1.0,
        2.220446049250313e-16,
        0.0,
        0.0,
        0.0,
        0.0,
        1.0
      ],
      "name": "Sketchfab_model"
    },
    {
      "children": [
        2
      ],
      "matrix": [
        0.009999999776482582,
        0.0,
        0.0,
        0.0,
        0.0,
        0.0,
        0.009999999776482582,
        0.0,
        0.0,
        -0.009999999776482582,
        0.0,
        0.0,
        0.0,
        0.0,
        0.0,
        1.0
      ],
      "name": "775941f2cc114f2189a6249d678de06d.fbx"
    },
    {
      "children": [
        3
      ],
      "name": "RootNode"
    },
    {
      "children": [
        4
      ],
      "matrix": [
        48.497973422348885,
        3.962385541640419e-07,
        9.358707523433178,
        0.0,
        9.358707523433186,
        -2.082560989075924e-06,
        -48.49797342234884,
        0.0,
        5.533454258895521e-09,
        49.392692565917926,
        -2.1199134939293946e-06,
        0.0,
        0.0,
        0.0,
        0.0,
        1.0
      ],
      "name": "grenade"
    },
    {
      "mesh": 0,
      "name": "grenade_grenade_0"
    }
  ],
  "samplers": [
    {
      "magFilter": 9729,
      "minFilter": 9987,
      "wrapS": 10497,
      "wrapT": 10497
    }
  ],
  "scene": 0,
  "scenes": [
    {
      "name": "Sketchfab_Scene",
      "nodes": [
        0
      ]
    }
  ],
  "textures": [
    {
      "sampler": 0,
      "source": 0
    },
    {
      "sampler": 0,
      "source": 1
    },
    {
      "sampler": 0,
      "source": 2
    },
    {
      "sampler": 0,
      "source": 3
    }
  ]
}
